<svg width="226" height="611" viewBox="0 0 226 611" fill="none" xmlns="http://www.w3.org/2000/svg">
<ellipse cx="93.5" cy="205.5" rx="57.5" ry="96.5" transform="rotate(8.98153 93.5 205.5)" fill="black"/>
<ellipse cx="119" cy="101" rx="46" ry="44" fill="black"/>
<path d="M159.5 95.5C156.667 82.1667 162.3 51.2 207.5 34" stroke="black" stroke-width="7"/>
<path d="M110.608 65.5C107.775 52.1667 113.408 21.2 158.608 4" stroke="black" stroke-width="7"/>
<path d="M148.5 181.5C153 174.5 166.3 164.7 183.5 181.5" stroke="black" stroke-width="7"/>
<path d="M21.8494 180.068C24.8635 172.311 35.9426 160.056 56.1467 173.09" stroke="black" stroke-width="7"/>
<path d="M5.84937 213.068C8.86345 205.311 19.9426 193.056 40.1467 206.09" stroke="black" stroke-width="7"/>
<path d="M3.84937 246.068C6.86345 238.311 17.9426 226.056 38.1467 239.09" stroke="black" stroke-width="7"/>
<path d="M141 218.276C145.5 211.276 158.8 201.476 176 218.276" stroke="black" stroke-width="7"/>
<path d="M130 255.276C134.5 248.276 147.8 238.476 165 255.276" stroke="black" stroke-width="7"/>
<rect x="73" y="310" width="21" height="53" fill="black"/>
<rect x="73" y="385" width="21" height="53" fill="black"/>
<rect x="73" y="460" width="21" height="53" fill="black"/>
<rect x="189.446" y="464.442" width="21" height="53" transform="rotate(-17.685 189.446 464.442)" fill="black"/>
<rect x="77.5699" y="538.568" width="21" height="53" transform="rotate(-14.8227 77.5699 538.568)" fill="black"/>
<rect x="197.876" y="533" width="21" height="53" transform="rotate(15.1773 197.876 533)" fill="black"/>
<rect x="119" y="611" width="21" height="53" transform="rotate(-90 119 611)" fill="black"/>
<rect x="132" y="458" width="21" height="53" transform="rotate(-90 132 458)" fill="black"/>
<rect x="4" y="458" width="21" height="53" transform="rotate(-90 4 458)" fill="black"/>
</svg>
